<svg width="18" height="18" viewBox="0 0 18 18" fill="none" xmlns="http://www.w3.org/2000/svg">
<path d="M11.4268 14.8835C10.2632 15.3655 8.98279 15.4916 7.7475 15.2459C6.51221 15.0001 5.37752 14.3936 4.48693 13.503L3.10141 14.8886C4.26603 16.0532 5.74986 16.8463 7.36524 17.1676C8.98062 17.4889 10.655 17.324 12.1767 16.6937C13.6983 16.0634 14.9989 14.9961 15.9139 13.6266C16.829 12.2572 17.3174 10.6471 17.3174 9.00011C17.3174 7.35308 16.829 5.74304 15.9139 4.37358C14.9989 3.00413 13.6983 1.93677 12.1767 1.30648C10.655 0.676188 8.98062 0.511272 7.36524 0.832592C5.74986 1.15391 4.26603 1.94703 3.10141 3.11166L4.48693 4.49718C5.37752 3.60658 6.51221 3.00008 7.7475 2.75436C8.98279 2.50865 10.2632 2.63476 11.4268 3.11674C12.5904 3.59873 13.585 4.41495 14.2847 5.46218C14.9845 6.50941 15.358 7.74061 15.358 9.00011C15.358 10.2596 14.9845 11.4908 14.2847 12.538C13.585 13.5853 12.5904 14.4015 11.4268 14.8835Z" fill="#717F94"/>
<path d="M7.14471 11.4494L8.41141 10.1827L-0.000219345 10.1827V8.22326H8.41132L7.14471 6.95665L8.53022 5.57113L12.1621 9.20302L8.53022 12.8349L7.14471 11.4494Z" fill="#717F94"/>
</svg>
