<svg width="20" height="18" viewBox="0 0 20 18" fill="none" xmlns="http://www.w3.org/2000/svg">
<path d="M5.89056 3.11653C7.05417 2.63454 8.33459 2.50843 9.56988 2.75415C10.8052 2.99986 11.9399 3.60636 12.8305 4.49696L14.216 3.11144C13.0513 1.94682 11.5675 1.1537 9.95214 0.832378C8.33676 0.511059 6.66237 0.675972 5.14072 1.30626C3.61906 1.93655 2.31848 3.00391 1.40344 4.37337C0.488401 5.74282 0 7.35286 0 8.99989C0 10.6469 0.488401 12.257 1.40344 13.6264C2.31848 14.9959 3.61906 16.0632 5.14072 16.6935C6.66238 17.3238 8.33676 17.4887 9.95214 17.1674C11.5675 16.8461 13.0513 16.053 14.216 14.8883L12.8305 13.5028C11.9399 14.3934 10.8052 14.9999 9.56988 15.2456C8.33459 15.4914 7.05418 15.3652 5.89056 14.8833C4.72694 14.4013 3.73237 13.5851 3.03264 12.5378C2.3329 11.4906 1.95942 10.2594 1.95942 8.99989C1.95942 7.7404 2.3329 6.50919 3.03264 5.46196C3.73237 4.41473 4.72694 3.59852 5.89056 3.11653Z" fill="#717F94"/>
<path d="M14.9826 6.55062L16.2493 7.81732L7.83767 7.81732V9.77674H16.2492L14.9826 11.0434L16.3681 12.4289L20 8.79698L16.3681 5.1651L14.9826 6.55062Z" fill="#717F94"/>
</svg>
